<svg version="1.1" id="Layer_1" xmlns="http://www.w3.org/2000/svg" xmlns:xlink="http://www.w3.org/1999/xlink" x="0px" y="0px"
	 width="100%" viewBox="0 0 1024 1024" enable-background="new 0 0 1024 1024" xml:space="preserve">
<path fill="#000000" opacity="1.000000" stroke="none" 
	d="
M723.753540,662.434631 
	C735.364807,661.581970 740.889221,667.069946 740.127014,678.309448 
	C740.057068,679.340881 740.114685,680.220520 740.536743,681.184143 
	C752.996460,709.633728 748.699585,737.037537 735.121277,763.748840 
	C732.088928,769.714050 727.457581,774.709778 722.844543,779.434814 
	C714.227417,788.261292 699.420532,789.936523 688.587708,783.647644 
	C685.878235,782.074768 684.040344,782.364990 681.347290,783.481567 
	C667.073181,789.399597 652.103210,792.793091 637.066895,788.037598 
	C615.456116,781.202759 594.265015,783.233582 572.886108,788.224121 
	C570.778992,788.716003 569.369873,789.794250 568.307983,791.684937 
	C542.320435,837.957886 478.921539,852.726379 433.145050,816.235840 
	C430.885132,814.434326 428.768097,812.987122 425.564941,813.218811 
	C405.001801,814.706116 389.391846,805.211853 376.139343,790.607178 
	C375.052582,789.409485 374.448608,787.702148 372.631256,787.082031 
	C370.485443,789.602661 368.553406,792.327026 366.174713,794.579712 
	C359.485962,800.914185 353.928619,800.408875 348.449799,793.067505 
	C347.365265,791.614258 346.218872,791.388000 344.605652,791.529907 
	C329.395416,792.868286 318.027222,783.741699 315.750031,768.278381 
	C315.245667,764.853394 314.342865,761.409241 315.412476,757.880859 
	C315.875946,756.351929 315.478668,755.142822 313.838501,754.162537 
	C308.755920,751.125061 308.019287,746.437805 309.405243,741.116943 
	C312.884766,727.758667 329.997986,716.273193 343.687134,718.098389 
	C344.653961,718.227295 345.625671,718.319214 347.055328,718.480225 
	C348.997925,710.984436 350.977325,703.644226 354.100433,696.756104 
	C345.964264,691.753296 344.229736,687.725952 346.685242,678.425415 
	C350.879364,662.539612 359.939697,649.437988 370.981964,637.637329 
	C374.124939,634.278503 378.061310,631.661987 382.318481,628.138306 
	C375.433685,623.553467 370.365723,620.178528 365.316742,616.816223 
	C356.207153,623.862366 352.679077,623.457275 339.342163,613.898193 
	C331.770996,621.225037 324.460754,619.585449 317.172272,612.333801 
	C304.954559,600.177734 296.642059,585.379333 290.686371,569.251526 
	C290.171722,567.857910 289.759460,566.426392 289.357880,565.191711 
	C288.021057,564.552063 287.164337,565.222473 286.365051,565.738953 
	C282.049225,568.527588 278.741669,566.979553 276.082275,563.269348 
	C272.506744,558.280884 270.614532,552.535461 269.915009,546.550110 
	C266.574127,517.963379 271.999908,491.234467 287.475800,466.773346 
	C292.142578,459.397064 292.227722,459.450928 285.565613,453.371338 
	C279.041138,456.272217 275.016571,455.464813 269.927887,449.423096 
	C261.768555,439.735596 257.309296,428.355804 255.703583,415.855652 
	C255.072647,410.943909 254.739990,405.993805 254.276703,401.115906 
	C240.578278,399.043243 234.662857,388.883484 238.203064,373.603210 
	C241.810699,358.031921 251.304169,346.114746 262.442688,335.314331 
	C265.782959,332.075439 269.495697,329.214508 273.103149,326.260193 
	C274.593994,325.039276 275.495087,324.041046 275.038422,321.711151 
	C273.122192,311.933899 276.966064,305.857605 286.575104,303.762695 
	C290.328491,302.944397 291.860901,301.577942 291.794769,297.555420 
	C291.703522,292.003387 295.190186,288.334869 299.873901,285.858551 
	C309.568665,280.732819 319.869598,281.502411 330.152313,283.164246 
	C344.761292,285.525269 357.673828,291.953186 369.644409,300.398468 
	C371.883789,301.978363 373.461151,302.852905 376.138000,300.771149 
	C380.064819,297.717224 384.465057,299.160583 388.402191,301.209229 
	C396.066254,305.197083 402.224792,310.998688 407.504730,317.786346 
	C411.520508,322.948822 411.519928,322.895416 416.963684,318.857391 
	C437.806183,303.396820 460.447632,291.714264 486.035126,286.374298 
	C495.459564,284.407471 500.509674,286.633942 505.683685,294.780060 
	C514.186523,291.862762 522.929382,289.265167 532.016602,288.145935 
	C541.657654,286.958466 551.277527,286.649872 560.753296,289.298126 
	C570.057190,291.898407 572.298035,296.144684 569.052979,305.381836 
	C582.091492,308.294159 594.611084,312.697815 606.773132,318.111603 
	C609.172668,319.179718 610.024353,317.555542 611.099121,316.015747 
	C619.240906,304.351501 629.723022,295.189789 641.731567,287.730988 
	C647.893433,283.903717 654.439331,280.992249 661.962952,281.719086 
	C667.597534,282.263367 672.485107,284.286316 674.188293,290.270782 
	C675.115234,293.527985 677.302612,292.768097 679.313293,292.521088 
	C697.623779,290.271423 712.284729,297.333160 724.049988,310.720612 
	C730.412659,317.960663 733.781799,326.608490 731.375610,336.589539 
	C731.066528,337.871490 730.853027,339.513947 729.975342,340.265198 
	C725.167908,344.380463 726.401123,349.248566 727.064880,354.624481 
	C729.022400,370.479767 724.599243,384.750519 713.960876,396.694580 
	C710.212097,400.903534 709.097595,404.232910 712.573364,409.138123 
	C715.559387,413.352325 716.850342,418.489136 717.888733,423.581482 
	C718.537048,426.760406 718.934082,430.268585 717.180115,432.855469 
	C714.025391,437.508270 716.032776,440.764069 718.420776,444.812195 
	C730.728516,465.676361 738.151306,488.069611 738.127686,512.535950 
	C738.121582,518.860962 737.421082,525.171692 735.540710,531.278320 
	C734.180786,535.694580 732.432678,539.799072 727.434387,541.252075 
	C724.684509,542.051331 725.474670,544.358582 725.316833,546.233276 
	C724.279785,558.556946 722.634827,570.741089 716.813721,581.911377 
	C715.820679,583.816895 714.657104,585.704712 713.238403,587.304749 
	C707.259705,594.047791 701.244263,593.229004 696.972534,584.623169 
	C688.305359,593.367249 678.714355,600.659119 667.336426,606.750793 
	C673.833496,611.909302 679.766357,616.581360 685.655151,621.308289 
	C690.012817,624.806152 693.543579,628.986511 695.472229,634.300720 
	C696.776611,637.894775 697.160461,641.510010 693.996582,644.470215 
	C692.907776,645.488892 692.320251,646.422241 692.983459,647.929382 
	C695.047607,652.619934 697.049744,657.337646 699.356567,662.696716 
	C706.189575,657.485779 712.967102,654.123230 719.127563,663.315918 
	C720.478210,663.064514 721.925293,662.795166 723.753540,662.434631 
M357.666840,758.176697 
	C358.135712,758.070740 358.728668,758.112000 359.054901,757.836914 
	C364.216827,753.484192 366.003265,753.958130 368.476288,760.406616 
	C368.833740,761.338623 369.106567,762.303223 369.468048,763.233582 
	C377.034637,782.707214 389.667145,797.181091 410.005981,803.850891 
	C413.508087,804.999329 417.182922,806.389465 421.038788,805.120361 
	C421.275818,802.956787 419.803467,801.870850 418.949860,800.519836 
	C413.232178,791.470642 407.519867,782.270630 406.168671,771.478394 
	C404.695587,759.712769 404.670685,753.646301 415.834808,749.528564 
	C411.832428,735.488892 415.762543,722.431396 422.751526,708.352051 
	C404.026855,708.764954 390.860443,716.250244 381.833710,732.075928 
	C379.950378,728.559082 381.283508,726.302673 382.220184,724.134033 
	C388.980316,708.482422 406.064331,698.702087 423.197968,700.956970 
	C426.408295,701.379456 428.352844,700.871399 430.449890,698.346130 
	C435.928589,691.748779 442.567291,686.468933 450.259094,682.579590 
	C453.192596,681.096252 456.115601,679.592285 459.194824,678.020386 
	C455.464600,670.904175 447.565521,667.351135 444.694916,659.997192 
	C447.869110,657.898804 449.970886,659.304504 452.023621,660.247620 
	C457.497406,662.762329 461.278595,667.260071 464.963531,671.786255 
	C466.563019,673.750793 468.000031,674.948730 470.840210,674.216187 
	C478.836761,672.153687 486.967773,672.027832 495.112549,673.368408 
	C496.712646,673.631714 498.010406,673.649902 498.736420,671.763550 
	C500.014374,668.443298 502.875977,667.792664 506.048248,667.673828 
	C511.560242,667.467407 516.612122,669.042603 521.293640,671.746216 
	C534.487671,679.366089 544.138245,690.429993 551.808533,703.410583 
	C556.231812,710.896179 558.896362,719.126282 561.883911,727.417786 
	C569.793945,725.727051 571.170105,732.208862 574.219971,737.753174 
	C582.141602,717.609192 582.501709,698.745361 572.213867,680.248352 
	C564.690613,666.721924 552.831055,657.596863 540.509888,648.904114 
	C538.345215,647.376953 535.315247,646.607300 534.257080,642.803955 
	C547.530457,645.606567 558.330811,651.959167 568.302612,661.097900 
	C570.466003,655.455444 573.905701,653.310669 578.993530,655.631653 
	C580.416626,651.925415 581.416016,648.739075 582.831055,645.749512 
	C586.736755,637.498169 595.113525,636.149353 601.489685,642.746155 
	C603.284302,644.602905 604.672852,646.852173 606.269470,648.950073 
	C611.486938,643.414307 614.858643,642.894104 619.155579,646.812988 
	C623.032593,650.348755 623.771179,655.503601 625.624023,659.968384 
	C634.153076,659.475708 634.736145,659.936340 637.913757,669.462769 
	C645.420898,661.092468 647.929688,650.199890 652.029846,640.039185 
	C654.434509,643.195923 653.315308,646.114929 652.727112,648.921021 
	C650.593079,659.101379 646.824951,668.647705 641.658691,677.703247 
	C633.129700,692.653259 635.669861,707.103821 648.559998,718.439758 
	C661.183655,729.541321 670.074097,727.963928 677.781006,713.014648 
	C681.358582,706.075073 685.227051,699.221619 686.950012,691.468506 
	C687.234680,690.187500 687.606201,688.707092 689.330017,688.707336 
	C690.738342,688.707520 691.118225,689.924194 691.607422,691.020081 
	C691.973083,691.838989 691.747192,693.055237 693.718933,693.620972 
	C696.991760,670.059021 689.350098,649.804382 675.419373,630.738892 
	C682.531494,629.954773 684.356079,636.458435 689.314453,638.405029 
	C688.563599,634.107727 686.741699,631.013489 684.392090,628.185181 
	C678.455017,621.038452 670.396301,617.077209 662.183533,613.299438 
	C659.352234,611.997070 656.858337,612.115356 654.110779,613.543396 
	C646.422119,617.539490 638.526245,621.108276 630.411011,624.153503 
	C628.102539,625.019775 625.655518,626.323730 623.066895,624.609924 
	C623.982910,622.367432 625.870239,621.848633 627.447327,621.020569 
	C641.899597,613.432068 656.549805,606.204346 669.863037,596.621582 
	C678.668030,590.283936 687.355347,583.857117 694.260803,575.334656 
	C696.063171,573.110229 698.349121,571.048096 701.543762,572.079163 
	C704.786194,573.125671 705.204041,576.031799 705.305481,579.005005 
	C705.340820,580.041992 704.845764,581.424133 706.593201,581.937073 
	C709.172974,580.183105 710.304321,577.368530 711.382568,574.617920 
	C715.496338,564.123230 717.043396,553.109619 717.642639,541.937195 
	C717.865601,537.780273 717.756165,533.605469 717.980042,529.448547 
	C718.080688,527.579041 718.787109,525.784546 720.865356,525.185364 
	C722.993408,524.571777 724.273743,525.775024 725.366516,527.444092 
	C725.853821,528.188354 725.829773,529.495117 727.385803,529.511230 
	C728.928528,526.176758 729.416199,522.570618 729.664856,518.943359 
	C731.540222,491.590637 723.233582,467.066223 708.758484,444.295319 
	C707.248169,441.919434 705.171753,439.899933 703.695190,437.507019 
	C702.072998,434.878204 702.154297,431.531494 705.510193,431.124023 
	C711.153137,430.438843 710.290466,426.950745 709.667603,423.574493 
	C708.275940,416.029510 704.180603,409.694855 699.966370,403.478851 
	C680.266418,374.421295 653.709961,352.942993 623.581299,335.779358 
	C602.836792,323.961639 581.249756,313.854370 556.792847,312.246216 
	C554.609070,312.102661 552.905212,311.169617 552.335571,308.919312 
	C551.714722,306.467072 553.335510,305.335510 555.187256,304.282349 
	C557.681641,302.863708 560.958496,302.481171 562.509338,298.833923 
	C558.039795,295.919006 553.052979,295.609161 548.175415,295.388611 
	C533.278564,294.715179 519.148376,298.311310 505.248657,303.302948 
	C496.330902,306.505493 495.184845,305.370453 497.014160,296.149231 
	C497.071045,295.862549 496.858124,295.522308 496.738342,295.088928 
	C492.671967,292.454346 488.384552,293.881378 484.264252,294.877258 
	C459.718079,300.810181 438.152100,312.803528 417.986389,327.647339 
	C415.739288,329.301422 415.669098,330.780396 416.791412,333.097961 
	C419.336121,338.352570 421.369995,343.848846 422.645447,349.537689 
	C423.511993,353.402679 425.167053,357.354462 423.042542,361.716553 
	C415.562225,338.856262 403.744019,319.482300 382.060516,306.734589 
	C381.235687,308.771027 380.729492,309.645294 380.527344,310.584961 
	C379.655823,314.636505 377.311371,314.813721 374.271667,312.989899 
	C372.417175,311.877228 370.628937,310.642822 368.878143,309.370575 
	C360.068970,302.969238 350.688538,297.628601 340.375671,294.038818 
	C330.310181,290.535126 319.931366,288.965149 309.420746,290.955383 
	C299.525970,292.829041 298.146484,296.258026 302.889954,304.759338 
	C303.803040,306.395813 304.792633,308.020355 303.574310,309.867004 
	C302.293579,311.808289 300.330078,311.830841 298.233551,311.690094 
	C295.084503,311.478668 291.874268,311.098297 288.773987,311.477081 
	C283.168762,312.161865 281.128479,316.185944 283.894348,321.002441 
	C285.959076,324.597931 285.360229,327.292511 282.167542,329.647308 
	C280.156830,331.130341 278.084930,332.534576 276.123199,334.079193 
	C263.494598,344.022766 252.894547,355.604065 247.297867,370.994537 
	C245.170517,376.844574 243.875290,382.913696 247.090317,388.898682 
	C248.781540,392.047058 251.245590,393.685699 254.908096,392.242401 
	C261.418732,389.676849 263.649567,391.328705 263.002716,398.163910 
	C261.866455,410.169952 263.702759,421.768127 268.771973,432.674957 
	C271.377411,438.280792 274.279968,443.942230 279.810760,447.587891 
	C280.492310,446.855835 280.958679,446.556763 281.128998,446.137421 
	C281.913330,444.206421 281.791901,441.502045 284.531555,441.129364 
	C287.399902,440.739197 288.431763,443.320801 289.717499,445.167419 
	C296.473175,454.870148 306.077545,459.449768 317.494568,460.930145 
	C319.487000,461.188507 321.946259,460.577545 323.518219,464.085358 
	C318.006378,466.695770 312.390656,468.602661 306.554169,466.571533 
	C302.096313,465.020172 299.948181,466.556366 297.506256,469.872040 
	C281.584198,491.491058 275.093994,515.712280 277.457977,542.313477 
	C277.946198,547.807129 278.676605,553.512634 282.816772,558.134155 
	C283.854950,557.477600 284.715363,556.997192 285.507416,556.422668 
	C292.065216,551.665955 293.964874,552.134277 296.123413,559.980408 
	C299.894714,573.689148 306.631653,585.854187 314.783722,597.325439 
	C317.968872,601.807495 321.301758,606.216980 326.125153,609.145569 
	C329.089935,610.945679 331.077271,611.098145 332.129303,606.813843 
	C333.934540,599.462341 335.922119,599.107117 341.655365,604.323730 
	C345.205078,607.553528 348.270966,611.420105 353.057281,613.070862 
	C355.598419,613.947327 357.105957,613.589600 357.661682,610.544800 
	C358.663696,605.055054 360.604858,604.195007 365.409851,607.128845 
	C369.383759,609.555176 373.045319,612.496216 377.035828,614.891846 
	C419.590790,640.439392 465.455566,647.453369 514.023376,639.209961 
	C515.782410,638.911377 517.679626,637.703796 519.628418,639.626770 
	C518.799927,640.191589 518.311462,640.709045 517.717468,640.902893 
	C494.286224,648.550293 470.430054,651.809326 445.867004,647.868591 
	C427.384766,644.903381 409.357483,640.353882 392.320892,632.428345 
	C389.274017,631.010986 387.072021,631.340088 384.885162,633.924072 
	C381.766876,637.608643 378.333435,641.025208 375.179932,644.681580 
	C365.627991,655.756836 357.589935,667.716675 353.852142,682.110840 
	C353.263062,684.379333 352.455078,686.960144 354.628235,688.617188 
	C356.815125,690.284851 358.618408,688.239624 360.357544,687.050293 
	C361.514252,686.259277 362.672577,685.694519 364.043121,686.522522 
	C365.368835,687.323425 365.765167,688.588257 365.419037,689.971375 
	C365.100128,691.245911 364.595276,692.505005 363.981018,693.669983 
	C356.999146,706.911804 353.813599,721.190430 353.592926,735.977539 
	C353.483582,743.306641 353.179047,751.006714 357.666840,758.176697 
M565.480469,738.467712 
	C564.917786,737.754272 565.188354,736.429504 563.746155,736.218933 
	C563.686584,736.727905 563.545776,737.203125 563.591736,737.659546 
	C563.853149,740.253723 563.972656,743.123657 560.825500,743.734558 
	C557.455933,744.388611 556.931580,741.253845 556.240784,738.926819 
	C554.633179,733.510925 553.471558,727.947632 551.616943,722.622498 
	C545.227722,704.277283 534.343445,689.303162 517.655884,678.967041 
	C514.282166,676.877441 510.604462,675.045898 505.456573,675.816223 
	C507.372864,677.419373 508.640808,678.445557 509.869110,679.517151 
	C511.151276,680.635742 512.472046,681.870300 511.521912,683.754089 
	C510.593872,685.593994 508.761383,685.457886 507.118622,685.106750 
	C505.501129,684.760986 503.937225,684.142822 502.370087,683.586975 
	C493.228638,680.344727 483.915466,679.317383 474.386902,681.520813 
	C466.864105,683.260376 459.910309,686.451538 453.153870,690.108032 
	C440.700287,696.847595 431.939331,707.054016 425.529449,719.484070 
	C420.429535,729.373840 418.856476,739.552551 422.404053,750.364441 
	C423.618134,754.064697 422.081818,756.580566 417.913879,756.880493 
	C412.866058,757.243774 411.842621,760.563599 412.655823,764.616699 
	C417.911469,790.812378 431.900940,810.463684 456.725067,821.299866 
	C486.060822,834.105408 513.850830,830.551392 539.925415,812.215454 
	C564.273193,795.093872 574.204407,763.266113 565.480469,738.467712 
M632.657532,668.056030 
	C631.798096,665.444397 630.788635,663.178162 627.395691,665.256165 
	C624.518982,667.018005 623.084167,665.334412 622.121216,662.864990 
	C621.275696,660.696594 620.653564,658.435791 619.725708,656.306030 
	C618.478821,653.443970 617.649292,649.540771 614.190063,649.160156 
	C610.649536,648.770569 609.938538,652.799805 608.491150,655.263062 
	C606.378662,658.858276 604.877563,657.999451 603.371033,654.875122 
	C602.289246,652.631897 601.308899,650.336121 599.522217,648.492004 
	C594.943665,643.766296 590.736023,644.275574 587.597900,650.015686 
	C585.421265,653.997314 584.154724,658.295288 583.185730,662.705139 
	C582.855530,664.207703 582.140320,665.678833 580.403259,665.832336 
	C578.869202,665.967896 578.218262,664.637878 577.477905,663.488098 
	C576.483826,661.944214 575.789185,659.152466 573.159668,661.060669 
	C570.830627,662.750732 571.199219,665.032410 573.009216,667.130066 
	C573.768921,668.010559 574.430786,668.977295 575.114868,669.920959 
	C591.642090,692.717957 592.700623,723.232605 577.790527,746.956787 
	C575.717651,750.255188 576.360535,756.780518 579.078918,760.033508 
	C581.836731,763.333679 584.071411,763.228210 586.669739,759.671448 
	C588.064697,757.761902 588.941711,755.608582 589.588806,753.355530 
	C589.931580,752.161865 590.477783,751.132629 591.839172,751.013855 
	C593.467834,750.871826 594.268188,752.038086 594.697693,753.330261 
	C595.430298,755.534729 595.898865,757.826660 596.626282,760.033081 
	C597.557129,762.856628 599.135986,765.155884 602.359314,765.639893 
	C605.686890,766.139465 608.184692,764.674194 610.079529,762.063721 
	C612.841614,758.258423 615.045654,754.200195 615.875610,749.480042 
	C616.151428,747.911194 616.145935,745.879883 618.207458,745.465210 
	C620.285950,745.046997 620.936157,746.879639 621.816650,748.285828 
	C624.352539,752.336121 625.919861,752.345337 628.247803,748.092712 
	C630.256775,744.422546 631.372375,740.437866 631.884399,736.243774 
	C632.248474,733.262024 633.316956,730.697266 637.013977,733.356995 
	C638.684875,734.559143 639.746216,733.742432 640.824097,732.498230 
	C643.632385,729.256775 643.504578,725.313049 640.692139,721.979187 
	C629.635071,708.872375 623.835693,694.818970 632.857178,678.077637 
	C634.461914,675.099854 633.676392,671.904968 632.657532,668.056030 
M689.779236,762.499817 
	C690.931091,765.753418 690.172974,769.100830 690.181885,772.398193 
	C690.188110,774.696716 691.028015,776.037598 693.085144,777.080200 
	C701.132935,781.159180 712.352600,779.194153 718.942383,772.148438 
	C712.282654,767.087158 708.374756,760.263245 707.047913,752.074646 
	C706.091675,746.173401 705.071716,740.230469 704.834595,734.276123 
	C704.412903,723.683960 703.518616,712.788330 712.855896,704.753906 
	C713.297424,704.374023 713.448059,703.568237 713.579773,702.929016 
	C715.862366,691.850037 721.243347,682.879578 730.837036,676.499390 
	C734.005920,674.391846 733.517456,670.779236 730.262268,668.802002 
	C725.849182,666.121338 722.064880,667.582642 718.337769,670.434875 
	C714.059082,673.709229 712.457031,672.968384 711.712158,667.632690 
	C711.185913,663.862366 709.567200,663.091187 706.471985,665.389709 
	C703.172607,667.839966 700.880066,670.673401 701.159119,675.394165 
	C701.558960,682.157349 702.183228,689.076965 698.988831,695.516785 
	C697.012207,699.501709 694.635254,702.700806 689.354126,700.447266 
	C687.360962,709.690186 681.086365,717.695007 684.159912,727.588684 
	C684.478333,728.613953 684.072266,729.902161 683.870972,731.045288 
	C681.409851,745.018494 674.554993,756.500000 664.190063,766.065002 
	C657.425293,772.307739 649.705933,777.026611 639.944824,781.195801 
	C649.892395,782.506348 658.164673,781.567627 666.493042,779.985229 
	C676.277344,778.126099 684.221619,774.253479 687.360291,763.917725 
	C687.597290,763.137390 688.073059,762.408752 689.779236,762.499817 
M662.575684,289.836304 
	C657.079712,288.538177 652.390076,290.912628 647.916016,293.437744 
	C637.831482,299.129364 628.960022,306.403870 621.348389,315.144165 
	C619.545532,317.214294 617.078125,318.910492 616.503174,322.377930 
	C625.562439,327.638519 634.653198,332.917419 643.979431,338.333038 
	C647.663330,330.839355 653.271057,325.884216 659.244690,321.300873 
	C673.084106,310.682556 691.596558,312.238556 701.793762,325.144928 
	C709.273682,334.612244 711.408325,345.849945 710.796326,357.597107 
	C710.276978,367.566284 706.898071,376.850494 702.206970,385.547852 
	C699.874634,389.872070 700.891663,392.575653 704.794189,395.273865 
	C717.124451,381.538818 723.259521,366.393036 717.409180,348.040070 
	C716.082947,343.879669 715.343567,340.215790 720.621460,338.220520 
	C723.123718,337.274536 723.653137,334.950897 723.828796,332.479370 
	C724.425842,324.079437 720.492310,317.710297 714.681030,312.292053 
	C702.936951,301.342285 689.179138,297.926788 673.532898,301.408386 
	C667.665710,302.713959 666.602661,301.736908 666.793213,295.916962 
	C666.885925,293.085693 666.230957,290.988556 662.575684,289.836304 
M635.033081,741.491577 
	C634.693176,742.951050 634.423340,744.431030 634.001770,745.866577 
	C631.504700,754.368774 626.433472,757.163147 618.395020,754.421509 
	C615.872681,760.575745 613.691101,767.027283 606.470886,769.491760 
	C598.198608,772.315308 594.537720,766.444336 590.853882,760.838074 
	C584.765564,767.009033 583.907593,767.154236 576.595093,763.268433 
	C575.610291,768.619385 574.647278,773.852234 573.543335,779.850586 
	C587.841858,775.540466 601.659668,774.974243 615.461975,775.944153 
	C636.567749,777.427246 652.491638,768.197083 665.452820,752.725220 
	C671.013794,746.086975 674.744446,738.359070 675.885254,728.093689 
	C665.444336,736.842346 656.085815,732.781250 646.760498,728.010132 
	C645.230164,733.364990 643.593140,738.089294 636.939758,737.730042 
	C634.998230,737.625183 635.426758,739.534729 635.033081,741.491577 
M663.356079,353.119171 
	C674.379761,362.099548 684.785217,371.759125 694.652771,382.612579 
	C702.626831,367.631866 705.739868,352.943787 699.709656,337.300232 
	C694.763123,324.467865 682.374390,318.969055 670.137634,324.266876 
	C661.500000,328.006470 655.356445,334.741577 649.101196,342.045624 
	C653.932800,345.801819 658.362549,349.245605 663.356079,353.119171 
M338.840668,783.732422 
	C343.007721,784.258118 346.617462,782.478882 350.363617,781.088440 
	C355.070099,779.341553 357.376801,781.362671 356.536346,786.283875 
	C356.316193,787.572937 355.721039,788.864868 356.829773,790.039185 
	C366.716125,787.891052 368.358765,778.404724 361.256622,764.473877 
	C353.796906,765.904236 350.886871,764.202332 348.230957,756.756775 
	C345.315186,748.582825 345.308960,740.070557 345.808594,731.600525 
	C346.081604,726.971375 344.083710,725.816467 340.013580,725.940735 
	C330.584106,726.228699 319.413971,734.687012 316.784119,743.763000 
	C316.289734,745.469116 315.638733,747.262268 317.208191,748.809326 
	C323.055481,746.865112 324.760986,748.209900 323.759796,754.085144 
	C323.138702,757.729797 323.085419,761.373840 323.324402,765.024109 
	C323.916779,774.071289 329.669250,781.302307 338.840668,783.732422 
M712.931885,716.997437 
	C711.255981,725.813171 712.909851,734.539856 713.792969,743.261047 
	C714.375916,749.018005 714.979431,754.860474 717.740784,760.130005 
	C718.903442,762.348694 720.275818,764.939270 722.828552,765.237244 
	C725.509399,765.550171 726.472046,762.643066 727.555359,760.700134 
	C739.293335,739.646545 742.736755,717.354126 737.133911,693.823120 
	C736.429138,690.863281 735.866882,687.644714 732.848633,685.300415 
	C725.843750,690.237610 722.329834,697.344299 720.311951,705.071716 
	C719.078308,709.795715 718.620911,714.489868 712.931885,716.997437 
z"/>
<path fill="#000000" opacity="1.000000" stroke="none" 
	d="
M408.133728,369.791809 
	C405.707703,381.798676 396.447693,391.043121 387.726685,390.567535 
	C386.914032,389.021362 388.895355,388.294922 388.790100,386.956299 
	C386.858276,381.651978 373.652008,378.496796 369.867188,382.435211 
	C368.486359,383.872070 368.229401,385.326477 369.920471,386.692810 
	C370.823853,387.422668 371.810547,388.052399 372.780212,388.696381 
	C374.041138,389.533783 375.537720,390.334717 375.012878,392.158691 
	C374.538971,393.805664 372.974548,393.433929 371.659790,393.570312 
	C365.925812,394.165131 360.614532,396.060059 355.925415,399.402832 
	C353.316437,401.262726 350.842407,403.615082 351.589478,407.225616 
	C352.304718,410.682190 355.689789,410.647766 358.330627,411.462524 
	C359.805939,411.917694 362.088501,411.153870 362.406799,413.442413 
	C362.696136,415.522461 360.498230,415.902405 359.225311,416.844818 
	C356.683136,418.726959 354.021271,420.466583 351.975220,422.929108 
	C350.753693,424.399231 349.766785,425.960266 351.283356,427.830780 
	C353.352386,430.382721 352.128448,432.364624 350.327423,434.419189 
	C342.032990,443.880981 329.281403,446.495422 318.187347,440.740204 
	C307.992065,435.451324 300.276428,427.764587 295.168793,417.304688 
	C289.778778,406.266602 285.471893,394.960907 285.275085,382.557587 
	C284.948029,361.949158 289.547821,343.380035 308.687897,331.773926 
	C322.413910,323.450806 336.844238,324.000763 351.447632,329.316406 
	C352.994415,329.879456 354.496490,330.565247 355.950867,331.165802 
	C362.258575,323.813354 363.796539,323.426086 373.243469,326.672699 
	C392.871826,333.418304 407.075256,350.782654 408.133728,369.791809 
M349.213776,415.413086 
	C343.071777,411.286865 343.542877,400.387146 351.764130,395.171204 
	C355.299011,392.928528 359.463776,392.179321 363.045288,390.353455 
	C362.105499,381.237000 364.484528,377.148315 371.585968,375.890900 
	C377.107117,374.913269 382.065735,376.642059 386.748810,379.567383 
	C388.806732,380.852905 390.263580,383.143219 393.052216,383.530792 
	C399.602722,376.821381 401.924835,369.202393 398.346741,360.288849 
	C392.600922,345.975220 381.141266,337.888855 367.477600,332.279175 
	C366.285767,331.789886 364.879456,331.080872 363.826416,332.476135 
	C362.910980,333.689148 363.318115,335.013397 364.016235,336.222290 
	C364.979736,337.890717 365.728790,339.611115 364.068787,341.223724 
	C362.370148,342.873932 360.403503,342.430481 358.499756,341.560608 
	C354.567627,339.763947 350.745941,337.679657 346.709473,336.165039 
	C323.711304,327.535675 301.167969,339.446228 295.189575,363.275055 
	C290.677673,381.258636 293.754181,398.300110 302.040314,414.508453 
	C305.955078,422.166138 311.537445,428.570862 319.173126,432.906891 
	C327.462494,437.614075 338.488708,437.033203 345.029175,431.386902 
	C342.134583,426.586395 344.021301,422.626892 347.542114,418.948853 
	C348.384155,418.069153 349.982819,417.577728 349.213776,415.413086 
z"/>
<path fill="#000000" opacity="1.000000" stroke="none" 
	d="
M419.774872,503.051483 
	C429.331726,487.978943 443.257568,479.702332 459.729034,475.435974 
	C481.085052,469.904449 501.914917,471.498413 521.935059,481.169647 
	C526.158569,483.209930 529.901428,485.981537 533.550659,488.894012 
	C537.203552,483.507904 541.459473,483.174713 545.814575,488.082397 
	C549.705688,492.467224 550.669922,497.900146 550.226257,503.503387 
	C549.923401,507.328674 550.843750,509.525299 554.784180,510.946564 
	C559.802551,512.756592 563.424988,516.543152 565.249695,521.711121 
	C567.751221,528.795959 565.506592,532.025146 557.530212,532.274597 
	C559.785034,543.261475 557.505676,553.624756 553.155823,563.693848 
	C549.289368,572.644165 543.267090,579.822571 535.481445,585.576660 
	C530.620728,589.169067 525.534729,591.115051 519.784790,586.854553 
	C514.928589,595.014709 509.295868,602.140747 501.898346,607.779053 
	C494.453583,613.453308 486.297638,617.500671 476.900146,618.183472 
	C464.694977,619.070251 458.621521,614.223877 455.890839,601.837158 
	C443.700958,603.829163 433.545715,599.134766 424.241364,591.739014 
	C411.230438,581.396973 407.030151,567.738953 409.156921,551.741638 
	C410.908386,538.567566 415.318817,526.278625 422.371338,514.727478 
	C417.663910,511.682922 417.209869,507.828766 419.774872,503.051483 
M461.205719,607.176575 
	C464.942444,613.082825 470.722839,614.133362 476.945465,613.322937 
	C485.254181,612.240845 492.396393,608.267151 499.016266,603.327087 
	C506.319305,597.877319 512.202087,591.149597 516.966492,583.382385 
	C518.643005,580.649231 520.762329,578.439697 522.884033,583.151794 
	C524.148438,585.959900 526.196350,586.050964 528.671448,585.021606 
	C531.487305,583.850586 533.965759,582.133667 536.053955,579.969666 
	C547.743591,567.855652 554.918823,553.870972 553.811157,536.506409 
	C553.684143,534.514404 553.679260,532.508667 553.736145,530.512695 
	C553.787354,528.716125 554.758423,527.820251 556.628967,527.883179 
	C558.289307,527.939026 560.427307,529.575989 561.414734,527.006042 
	C562.258240,524.810669 561.243835,522.757935 559.990173,520.917908 
	C557.542664,517.325623 553.922668,515.252991 550.073181,513.588013 
	C546.868958,512.202148 545.522278,510.349030 546.387451,506.590027 
	C547.371765,502.313446 546.716125,497.941986 544.781311,493.915558 
	C543.564148,491.382629 542.032776,489.096161 538.969116,489.062866 
	C536.614197,492.531067 540.696594,496.035187 538.136841,499.535553 
	C533.849426,497.903961 532.124451,493.742188 528.985840,491.177490 
	C513.777649,478.749969 496.205414,474.889282 477.047791,476.146454 
	C456.602692,477.488098 439.472992,485.510376 425.897339,500.951263 
	C424.446472,502.601501 423.204529,504.396942 422.591309,506.489075 
	C421.922516,508.770844 422.282379,510.599274 425.358307,510.195099 
	C430.279144,509.548492 429.720215,512.038879 427.770538,514.752930 
	C419.250153,526.613770 415.668213,540.093445 413.990570,554.366943 
	C411.008667,579.737549 432.732361,601.066528 457.746948,597.062622 
	C459.210052,596.828430 460.710266,596.356079 461.939819,598.016296 
	C462.268066,600.842285 459.134613,603.414001 461.205719,607.176575 
z"/>
<path fill="#000000" opacity="1.000000" stroke="none" 
	d="
M690.503906,575.377930 
	C683.595886,579.778931 672.986450,578.575806 666.071838,572.846924 
	C664.300049,571.379028 662.705688,569.696838 661.045837,568.128174 
	C653.899109,574.005981 647.176941,572.952759 642.471375,564.933716 
	C636.314758,554.441711 634.026123,542.971924 635.248535,530.901001 
	C635.522217,528.199097 635.550232,526.738342 632.432312,525.823486 
	C628.714050,524.732605 627.972412,521.639099 629.428528,518.173645 
	C629.933716,516.971313 630.569214,515.482117 631.588989,514.895752 
	C636.501465,512.070984 637.633301,507.570129 637.657349,502.449646 
	C637.658936,502.120544 637.724731,501.785278 637.805115,501.463959 
	C639.790405,493.526886 644.857361,491.846741 651.326294,497.326172 
	C656.847839,492.666229 662.729614,488.450470 669.867249,486.248230 
	C686.327881,481.169403 700.350220,485.315369 712.215271,497.326813 
	C715.541748,500.694305 718.277832,504.637756 714.808044,509.722260 
	C713.705811,511.337494 715.045532,512.928406 715.444885,514.480835 
	C718.938599,528.061157 718.318115,541.163269 711.019958,553.508484 
	C707.872620,558.832275 703.494019,562.921448 697.755798,565.148682 
	C694.176270,566.538086 691.492798,567.970093 692.014709,572.431641 
	C692.111389,573.258301 691.223694,574.200073 690.503906,575.377930 
M648.646362,565.875061 
	C651.605774,567.761230 655.251648,570.541321 657.400024,565.883545 
	C659.863281,560.542786 661.395203,562.438843 663.706665,565.564026 
	C668.696289,572.310059 675.693542,574.835388 683.776184,574.605225 
	C687.212708,574.507385 689.887878,572.933716 688.235596,568.873352 
	C686.755127,565.235168 688.138428,564.259155 691.514771,563.602722 
	C697.979980,562.345764 703.158936,558.838318 706.911011,553.371826 
	C713.168213,544.255798 714.762695,534.161194 713.283142,523.368103 
	C712.492981,517.603149 710.398865,512.285767 707.795410,508.035248 
	C709.116455,505.293610 711.221985,507.119446 712.437256,505.236938 
	C709.551697,498.091034 703.796265,493.811157 696.649963,491.430969 
	C680.470093,486.041931 666.176941,489.943756 653.607544,501.011749 
	C649.299500,504.805237 649.313049,504.886475 647.194336,499.777893 
	C646.738464,498.678680 646.208435,497.626862 644.538574,497.697357 
	C640.587952,500.265991 640.796326,504.445862 641.366943,508.331116 
	C641.901428,511.970093 641.384338,514.124817 637.669373,515.764099 
	C635.094604,516.900208 632.189270,518.890930 632.772095,522.821411 
	C640.561340,522.107239 640.728699,522.310608 639.635498,530.781006 
	C639.614258,530.946045 639.563599,531.109314 639.559509,531.274231 
	C639.255310,543.434631 640.392273,555.232605 648.646362,565.875061 
z"/>
<path fill="#000000" opacity="1.000000" stroke="none" 
	d="
M584.534668,543.238403 
	C585.237549,537.785461 589.173218,535.640015 593.204590,534.119568 
	C600.911255,531.212891 608.911865,529.973694 617.137573,531.798401 
	C621.753723,532.822449 625.142456,535.387451 625.929749,540.187378 
	C626.687561,544.808289 623.880005,547.870483 620.006104,549.553467 
	C616.173218,551.218567 614.556885,553.578247 615.589111,557.655151 
	C615.668701,557.969421 615.667419,558.324829 615.617798,558.647888 
	C615.183899,561.473022 615.995911,565.615906 611.979004,565.778931 
	C607.990967,565.940674 607.832764,561.842407 607.917053,559.004028 
	C608.060059,554.191956 606.210449,553.084595 601.634644,553.667603 
	C598.097107,554.118408 594.336304,553.676453 590.882935,552.195068 
	C587.082581,550.564819 584.462769,548.080139 584.534668,543.238403 
z"/>
<path fill="#000000" opacity="1.000000" stroke="none" 
	d="
M550.322998,745.926147 
	C559.082336,771.515869 548.909607,798.815674 525.371033,811.249390 
	C503.749847,822.670227 481.071960,823.466858 458.245605,814.883972 
	C444.016266,809.533691 436.383636,798.586304 433.986420,783.827209 
	C433.631927,781.644775 432.658386,778.852844 435.063538,777.371826 
	C437.798218,775.687927 439.128235,778.506653 440.763733,779.997559 
	C441.511322,780.678894 442.260010,781.311279 443.537903,781.265320 
	C446.394806,778.289185 446.006226,774.488831 445.428925,770.988770 
	C442.624207,753.984558 448.020935,740.060669 461.173981,729.272278 
	C475.302124,717.684204 491.833679,711.807434 509.916565,714.086975 
	C529.014954,716.494568 542.030029,728.323242 550.322998,745.926147 
M452.181305,766.575623 
	C451.821350,775.234314 454.675323,785.176086 442.824493,789.001221 
	C446.320129,797.471436 451.983429,803.233276 459.907379,806.868042 
	C467.601166,810.397400 475.711487,811.847717 484.116577,812.141418 
	C499.098633,812.664856 513.238098,810.042175 525.924194,801.528931 
	C548.051758,786.679626 556.309326,748.412292 525.423218,728.352661 
	C508.019287,717.049377 491.029999,721.098389 474.470276,729.987061 
	C460.461517,737.506470 451.875793,748.897949 452.181305,766.575623 
z"/>
<path fill="#000000" opacity="1.000000" stroke="none" 
	d="
M516.136475,556.944153 
	C509.219604,568.113892 500.316650,573.620911 493.274811,570.687622 
	C496.166870,569.150208 498.747040,567.849731 501.256622,566.425049 
	C503.893188,564.928162 505.871307,562.714417 507.867645,560.139404 
	C492.346375,564.364258 479.857941,558.701965 472.635345,544.903137 
	C467.578705,535.242371 468.900574,518.641968 476.450073,514.782532 
	C475.975006,520.008301 475.566803,525.474792 482.224945,526.430786 
	C486.278473,527.012817 489.183228,524.477844 490.826355,520.864014 
	C493.334534,515.347839 489.437073,512.700134 485.557709,510.385895 
	C486.319824,508.316589 487.855560,508.785065 489.079193,508.736176 
	C510.608673,507.876801 525.834534,527.221130 519.784668,547.822693 
	C518.900391,550.834106 517.480713,553.688354 516.136475,556.944153 
z"/>
<path fill="#000000" opacity="1.000000" stroke="none" 
	d="
M668.197815,550.877686 
	C658.004639,541.223206 656.894104,528.081299 665.392090,517.737915 
	C667.289429,520.136475 667.903748,524.474182 672.284424,523.309937 
	C674.770752,522.649170 676.731567,520.999573 677.507935,518.376648 
	C678.654724,514.502319 675.970398,512.656860 672.656128,510.771393 
	C677.630249,506.701294 682.682800,506.389008 687.838440,508.328674 
	C693.414978,510.426727 696.598572,514.638245 697.308899,520.691406 
	C698.776978,533.200745 688.620178,547.635925 672.224670,547.550354 
	C675.395264,551.176270 679.613708,551.991760 683.566284,553.507507 
	C679.666992,556.864868 675.631714,556.131958 668.197815,550.877686 
z"/>
</svg>